<svg width="200" height="200" viewBox="0 0 200 200" xmlns="http://www.w3.org/2000/svg">
  <!-- Success City Academy Logo Placeholder -->
  <!-- Green circle background -->
  <circle cx="100" cy="100" r="90" fill="#16a34a"/>
  
  <!-- Yellow sun rays -->
  <circle cx="100" cy="70" r="25" fill="#eab308"/>
  <path d="M100 35 L100 20 M100 120 L100 135 M65 70 L55 60 M135 70 L145 60 M75 50 L65 40 M125 50 L135 40 M75 90 L65 100 M125 90 L135 100" 
        stroke="#eab308" stroke-width="4" stroke-linecap="round"/>
  
  <!-- Book/Education symbol in white -->
  <rect x="70" y="110" width="60" height="50" rx="3" fill="white"/>
  <line x1="100" y1="110" x2="100" y2="160" stroke="#16a34a" stroke-width="2"/>
  <line x1="70" y1="125" x2="130" y2="125" stroke="#16a34a" stroke-width="1"/>
  <line x1="70" y1="135" x2="130" y2="135" stroke="#16a34a" stroke-width="1"/>
  <line x1="70" y1="145" x2="130" y2="145" stroke="#16a34a" stroke-width="1"/>
</svg>
